<svg id="Layer_1" data-name="Layer 1" xmlns="http://www.w3.org/2000/svg" viewBox="0 0 126.01 120.85"><path d="M67.32,66.24c11.38,5.3,23.11,7.93,33,7.41h.18l.71-70.51A3.09,3.09,0,0,0,96.42.53l-59.31,40C41.91,49.7,53,59.56,67.32,66.24Z" style="fill:#ffffff"/><path d="M97.88,80.42c-10.35,0-22.08-2.83-33.39-8.11-15.6-7.27-27.33-17.64-33-28L1.37,64.66a3.09,3.09,0,0,0,1.31,5.63l50.64,6.89A12.41,12.41,0,0,1,61,81.32l33.64,38.47a3.1,3.1,0,0,0,5.43-2l.37-37.43Q99.19,80.42,97.88,80.42Z" style="fill:#ffffff"/><path d="M97.88,75.08c-10.35,0-22.08-2.83-33.39-8.11-26.6-12.4-42-33.82-35-48.77S62.74,1.28,89.34,13.68A86.53,86.53,0,0,1,112.15,28.9a3.35,3.35,0,0,1-4.61,4.87,79.8,79.8,0,0,0-21-14C64.09,9.3,40.75,9.89,35.55,21S44.9,50.44,67.32,60.9c11.38,5.3,23.11,7.94,33,7.41,9.17-.48,15.54-3.56,17.93-8.69,2.49-5.35.08-11.46-2.38-15.64a3.35,3.35,0,1,1,5.78-3.4c4.63,7.87,5.58,15.64,2.68,21.87-3.49,7.48-11.89,12-23.66,12.56C99.77,75.06,98.83,75.08,97.88,75.08Z" style="fill:#ffffff"/></svg>